<?xml version="1.0" encoding="UTF-8" standalone="no"?>
<svg
   xmlns:dc="http://purl.org/dc/elements/1.1/"
   xmlns:cc="http://creativecommons.org/ns#"
   xmlns:rdf="http://www.w3.org/1999/02/22-rdf-syntax-ns#"
   xmlns:svg="http://www.w3.org/2000/svg"
   xmlns="http://www.w3.org/2000/svg"
   viewBox="0 0 1333.3333 1333.3333"
   height="1333.3333"
   width="1333.3333"
   xml:space="preserve"
   id="svg2"
   version="1.1"><metadata
     id="metadata8"><rdf:RDF><cc:Work
         rdf:about=""><dc:format>image/svg+xml</dc:format><dc:type
           rdf:resource="http://purl.org/dc/dcmitype/StillImage" /></cc:Work></rdf:RDF></metadata><defs
     id="defs6" /><g
     transform="matrix(1.3333333,0,0,-1.3333333,0,1333.3333)"
     id="g10"><g
       transform="scale(0.1)"
       id="g12"><path
         id="path14"
         style="fill:#fa69b4;fill-opacity:1;fill-rule:nonzero;stroke:none"
         d="M 5000,2500 C 3529.22,6104.12 1862.55,8604.12 0,10000 H 1111.11 C 2510.66,8837.17 3806.96,6337.17 5000,2500" /><path
         id="path16"
         style="fill:#fa69b4;fill-opacity:1;fill-rule:nonzero;stroke:none"
         d="M 5000,2500 C 4120.96,6518.45 3195.03,9018.45 2222.22,10000 H 3333.33 C 3906.1,9142.46 4461.66,6642.46 5000,2500" /><path
         id="path18"
         style="fill:#fa69b4;fill-opacity:1;fill-rule:nonzero;stroke:none"
         d="m 5000,2500 c -181.29,4205.42 -366.46,6705.42 -555.56,7500 H 5555.56 C 5366.46,9205.42 5181.28,6705.42 5000,2500" /><path
         id="path20"
         style="fill:#fa69b4;fill-opacity:1;fill-rule:nonzero;stroke:none"
         d="m 5000,2500 c 538.34,4142.46 1093.9,6642.46 1666.67,7500 h 1111.1 C 6804.97,9018.45 5879.04,6518.45 5000,2500" /><path
         id="path22"
         style="fill:#fa69b4;fill-opacity:1;fill-rule:nonzero;stroke:none"
         d="m 5000,2500 c 1193.04,3837.17 2489.34,6337.17 3888.89,7500 H 10000 C 8137.45,8604.12 6470.78,6104.12 5000,2500" /><path
         id="path24"
         style="fill:#fa69b4;fill-opacity:1;fill-rule:nonzero;stroke:none"
         d="m 5000,2500 c 1703.84,3326.37 3370.51,5456 5000,6388.89 V 7777.78 C 8551.79,7271.64 6885.12,5512.38 5000,2500" /><path
         id="path26"
         style="fill:#fa69b4;fill-opacity:1;fill-rule:nonzero;stroke:none"
         d="m 5000,2500 c 2009.12,2671.68 3675.79,4060.57 5000,4166.67 V 5555.56 C 8738.75,5833.13 7072.09,4814.62 5000,2500" /><path
         id="path28"
         style="fill:#fa69b4;fill-opacity:1;fill-rule:nonzero;stroke:none"
         d="m 5000,2500 c 2072.09,1952.05 3738.75,2600.2 5000,1944.44 V 3333.33 C 8675.79,4372.76 7009.12,4094.99 5000,2500" /><path
         id="path30"
         style="fill:#fa69b4;fill-opacity:1;fill-rule:nonzero;stroke:none"
         d="m 5000,2500 c 1885.12,1254.29 3551.79,1161.7 5000,-277.77 V 1111.11 C 8370.51,2977.33 6703.84,3440.29 5000,2500" /><path
         id="path32"
         style="fill:#fa69b4;fill-opacity:1;fill-rule:nonzero;stroke:none"
         d="M 5000,2500 C 6470.78,3162.55 8137.45,2329.22 10000,0 H 8888.89 C 7489.34,2096.16 6193.04,2929.49 5000,2500" /><path
         id="path34"
         style="fill:#fa69b4;fill-opacity:1;fill-rule:nonzero;stroke:none"
         d="M 5000,2500 C 5879.04,2748.21 6804.97,1914.88 7777.77,0 H 6666.67 C 6093.9,1790.88 5538.34,2624.21 5000,2500" /><path
         id="path36"
         style="fill:#fa69b4;fill-opacity:1;fill-rule:nonzero;stroke:none"
         d="m 5000,2500 c 181.28,61.25 366.46,-772.09 555.56,-2500 H 4444.44 c 189.1,1727.91 374.27,2561.25 555.56,2500" /><path
         id="path38"
         style="fill:#fa69b4;fill-opacity:1;fill-rule:nonzero;stroke:none"
         d="M 5000,2500 C 4461.66,2624.21 3906.1,1790.88 3333.33,0 H 2222.22 C 3195.03,1914.88 4120.96,2748.21 5000,2500" /><path
         id="path40"
         style="fill:#fa69b4;fill-opacity:1;fill-rule:nonzero;stroke:none"
         d="M 5000,2500 C 3806.96,2929.49 2510.66,2096.16 1111.11,0 H 0 c 1862.55,2329.22 3529.22,3162.55 5000,2500" /><path
         id="path42"
         style="fill:#fa69b4;fill-opacity:1;fill-rule:nonzero;stroke:none"
         d="M 5000,2500 C 3296.16,3440.29 1629.5,2977.33 0,1111.11 V 2222.23 C 1448.21,3661.7 3114.88,3754.29 5000,2500" /><path
         id="path44"
         style="fill:#fa69b4;fill-opacity:1;fill-rule:nonzero;stroke:none"
         d="M 5000,2500 C 2990.87,4094.99 1324.21,4372.76 0,3333.33 V 4444.44 C 1261.25,5100.2 2927.92,4452.05 5000,2500" /><path
         id="path46"
         style="fill:#fa69b4;fill-opacity:1;fill-rule:nonzero;stroke:none"
         d="M 5000,2500 C 2927.92,4814.62 1261.25,5833.13 0,5555.56 V 6666.67 C 1324.21,6560.57 2990.87,5171.68 5000,2500" /><path
         id="path48"
         style="fill:#fa69b4;fill-opacity:1;fill-rule:nonzero;stroke:none"
         d="M 5000,2500 C 3114.88,5512.38 1448.21,7271.64 0,7777.78 V 8888.89 C 1629.5,7956 3296.16,5826.37 5000,2500" /><path
         id="path50"
         style="fill:#dc4b96;fill-opacity:1;fill-rule:nonzero;stroke:none"
         d="M 5000,2500 C 3806.96,6337.17 2510.66,8837.17 1111.11,10000 H 2222.22 C 3195.03,9018.45 4120.96,6518.45 5000,2500" /><path
         id="path52"
         style="fill:#dc4b96;fill-opacity:1;fill-rule:nonzero;stroke:none"
         d="M 5000,2500 C 4461.66,6642.46 3906.1,9142.46 3333.33,10000 H 4444.44 C 4633.54,9205.42 4818.71,6705.42 5000,2500" /><path
         id="path54"
         style="fill:#dc4b96;fill-opacity:1;fill-rule:nonzero;stroke:none"
         d="m 5000,2500 c 181.28,4205.42 366.46,6705.42 555.56,7500 H 6666.67 C 6093.9,9142.46 5538.34,6642.46 5000,2500" /><path
         id="path56"
         style="fill:#dc4b96;fill-opacity:1;fill-rule:nonzero;stroke:none"
         d="m 5000,2500 c 879.04,4018.45 1804.97,6518.45 2777.77,7500 H 8888.89 C 7489.34,8837.17 6193.04,6337.17 5000,2500" /><path
         id="path58"
         style="fill:#dc4b96;fill-opacity:1;fill-rule:nonzero;stroke:none"
         d="m 5000,2500 c 1470.78,3604.12 3137.45,6104.12 5000,7500 V 8888.89 C 8370.51,7956 6703.84,5826.37 5000,2500" /><path
         id="path60"
         style="fill:#dc4b96;fill-opacity:1;fill-rule:nonzero;stroke:none"
         d="m 5000,2500 c 1885.12,3012.38 3551.79,4771.64 5000,5277.78 V 6666.67 C 8675.79,6560.57 7009.12,5171.68 5000,2500" /><path
         id="path62"
         style="fill:#dc4b96;fill-opacity:1;fill-rule:nonzero;stroke:none"
         d="m 5000,2500 c 2072.09,2314.62 3738.75,3333.13 5000,3055.56 V 4444.44 C 8738.75,5100.2 7072.09,4452.05 5000,2500" /><path
         id="path64"
         style="fill:#dc4b96;fill-opacity:1;fill-rule:nonzero;stroke:none"
         d="m 5000,2500 c 2009.12,1594.99 3675.79,1872.76 5000,833.33 V 2222.23 C 8551.79,3661.7 6885.12,3754.29 5000,2500" /><path
         id="path66"
         style="fill:#dc4b96;fill-opacity:1;fill-rule:nonzero;stroke:none"
         d="m 5000,2500 c 1703.84,940.29 3370.51,477.33 5000,-1388.89 V 0 C 8137.45,2329.22 6470.78,3162.55 5000,2500" /><path
         id="path68"
         style="fill:#dc4b96;fill-opacity:1;fill-rule:nonzero;stroke:none"
         d="M 5000,2500 C 6193.04,2929.49 7489.34,2096.16 8888.89,0 H 7777.77 C 6804.97,1914.88 5879.04,2748.21 5000,2500" /><path
         id="path70"
         style="fill:#dc4b96;fill-opacity:1;fill-rule:nonzero;stroke:none"
         d="M 5000,2500 C 5538.34,2624.21 6093.9,1790.88 6666.67,0 H 5555.56 C 5366.46,1727.91 5181.28,2561.25 5000,2500" /><path
         id="path72"
         style="fill:#dc4b96;fill-opacity:1;fill-rule:nonzero;stroke:none"
         d="M 5000,2500 C 4818.71,2561.25 4633.54,1727.91 4444.44,0 H 3333.33 C 3906.1,1790.88 4461.66,2624.21 5000,2500" /><path
         id="path74"
         style="fill:#dc4b96;fill-opacity:1;fill-rule:nonzero;stroke:none"
         d="M 5000,2500 C 4120.96,2748.21 3195.03,1914.88 2222.22,0 H 1111.11 C 2510.66,2096.16 3806.96,2929.49 5000,2500" /><path
         id="path76"
         style="fill:#dc4b96;fill-opacity:1;fill-rule:nonzero;stroke:none"
         d="M 5000,2500 C 3529.22,3162.55 1862.55,2329.22 0,0 V 1111.11 C 1629.5,2977.33 3296.16,3440.29 5000,2500" /><path
         id="path78"
         style="fill:#dc4b96;fill-opacity:1;fill-rule:nonzero;stroke:none"
         d="M 5000,2500 C 3114.88,3754.29 1448.21,3661.7 0,2222.23 v 1111.1 C 1324.21,4372.76 2990.87,4094.99 5000,2500" /><path
         id="path80"
         style="fill:#dc4b96;fill-opacity:1;fill-rule:nonzero;stroke:none"
         d="M 5000,2500 C 2927.92,4452.05 1261.25,5100.2 0,4444.44 V 5555.56 C 1261.25,5833.13 2927.92,4814.62 5000,2500" /><path
         id="path82"
         style="fill:#dc4b96;fill-opacity:1;fill-rule:nonzero;stroke:none"
         d="M 5000,2500 C 2990.87,5171.68 1324.21,6560.57 0,6666.67 V 7777.78 C 1448.21,7271.64 3114.88,5512.38 5000,2500" /><path
         id="path84"
         style="fill:#dc4b96;fill-opacity:1;fill-rule:nonzero;stroke:none"
         d="M 5000,2500 C 3296.16,5826.37 1629.5,7956 0,8888.89 V 10000 C 1862.55,8604.12 3529.22,6104.12 5000,2500" /></g></g></svg>